<?xml version="1.0" encoding="utf-8"?>
<!-- Generator: Adobe Illustrator 18.0.0, SVG Export Plug-In . SVG Version: 6.00 Build 0)  -->
<!DOCTYPE svg PUBLIC "-//W3C//DTD SVG 1.1//EN" "http://www.w3.org/Graphics/SVG/1.1/DTD/svg11.dtd">
<svg version="1.1" id="Capa_1" xmlns="http://www.w3.org/2000/svg" xmlns:xlink="http://www.w3.org/1999/xlink" x="0px" y="0px"
	 viewBox="-57 1064.5 449.1 157.7" enable-background="new -57 1064.5 449.1 157.7" xml:space="preserve">
<g id="Capa_1_1_" display="none">
	<g display="inline">
		<g id="XMLID_6923_">
			<g id="XMLID_167_">
				<path id="XMLID_184_" fill="#646363" d="M-688.1,2712.8v-4.8c-2,2.8-5.6,5.4-11.1,5.4c-5.4,0-11.3-3-11.3-8.9v-0.2
					c0-6,5.2-9.1,12.7-9.1c4,0,6.7,0.6,9.5,1.2v-1.2c0-5.8-3.6-8.7-9.5-8.7c-3.6,0-6.3,1-9.1,2.2l-1-2.4c3.2-1.4,6.3-2.4,10.3-2.4
					c7.5,0,12.1,3.8,12.1,11.1v17.7L-688.1,2712.8L-688.1,2712.8L-688.1,2712.8z M-687.9,2698.9c-2.6-0.6-5.8-1.2-9.9-1.2
					c-6.2,0-9.5,2.6-9.5,6.5v0.2c0,4.2,4,6.5,8.3,6.5c6,0,10.9-3.6,10.9-8.7L-687.9,2698.9L-687.9,2698.9z"/>
				<path id="XMLID_182_" fill="#646363" d="M-665.3,2713h-2.4l-13.1-28.6h3.2l10.9,25.2l11.1-25.2h3.2L-665.3,2713z"/>
				<path id="XMLID_179_" fill="#646363" d="M-635.5,2710.8c4.6,0,7.5-2,9.9-4.4l2,1.6c-3,3.2-6.3,5.4-12.1,5.4
					c-7.5,0-14.3-6-14.3-14.7v-0.2c0-8.1,6-14.7,13.7-14.7c8.1,0,13.3,6.3,13.3,14.9v0.2c0,0.4,0,0.6,0,1h-23.8
					C-646.4,2706.8-641.3,2710.8-635.5,2710.8z M-625.8,2697.3c-0.4-5.8-3.8-10.9-10.3-10.9c-5.8,0-10.1,4.8-10.7,10.9H-625.8z"/>
				<path id="XMLID_177_" fill="#646363" d="M-593.9,2712.8v-16.9c0-5.8-3.4-9.7-9.1-9.7c-5.8,0-10.1,4.2-10.1,10.1v16.5h-2.8v-28.4
					h2.8v5.4c2-3.4,5.2-6,10.5-6c7.3,0,11.7,5,11.7,11.7v17.3C-590.9,2712.8-593.9,2712.8-593.9,2712.8z"/>
				<path id="XMLID_175_" fill="#646363" d="M-572.8,2713.2c-4.6,0-8.1-2.4-8.1-7.7v-18.7h-4.4v-2.6h4.2v-9.1h2.8v9.1h10.1v2.6
					h-10.1v18.3c0,4,2.4,5.6,5.8,5.6c1.4,0,2.6-0.2,4.4-1v2.6C-569.6,2713-571,2713.2-572.8,2713.2z"/>
				<path id="XMLID_173_" fill="#646363" d="M-539.7,2712.8v-5.4c-2,3.4-5.2,6-10.5,6c-7.3,0-11.7-5-11.7-11.7v-17.3h2.8v16.9
					c0,5.8,3.4,9.7,9.1,9.7s10.1-4.2,10.1-10.1v-16.5h2.8v28.4C-537.1,2712.8-539.7,2712.8-539.7,2712.8z"/>
				<path id="XMLID_171_" fill="#646363" d="M-512.3,2687c-6.7,0-12.5,5-12.5,14.1v11.7h-3v-28.4h2.8v8.1c2.2-5,7.1-8.7,12.9-8.5
					L-512.3,2687C-512.1,2687-512.3,2687-512.3,2687z"/>
				<path id="XMLID_168_" fill="#646363" d="M-487.9,2712.8v-4.8c-2,2.8-5.6,5.4-11.1,5.4c-5.4,0-11.3-3-11.3-8.9v-0.2
					c0-6,5.2-9.1,12.7-9.1c4,0,6.7,0.6,9.5,1.2v-1.2c0-5.8-3.6-8.7-9.5-8.7c-3.6,0-6.3,1-9.1,2.2l-1-2.4c3.2-1.4,6.3-2.4,10.3-2.4
					c7.5,0,12.1,3.8,12.1,11.1v17.7L-487.9,2712.8L-487.9,2712.8z M-487.9,2698.9c-2.4-0.6-5.8-1.2-9.9-1.2c-6.2,0-9.5,2.6-9.5,6.5
					v0.2c0,4.2,4,6.5,8.3,6.5c6,0,10.9-3.6,10.9-8.7L-487.9,2698.9L-487.9,2698.9L-487.9,2698.9z"/>
			</g>
		</g>
		<g id="XMLID_6905_">
			<g id="XMLID_135_">
				<path id="XMLID_151_" fill="#646363" d="M-293,2713.4c-4.2,0-8.7-1.6-11.9-4.2l1.6-2.2c3.2,2.4,6.7,3.8,10.3,3.8
					c4,0,6.9-2.2,6.9-5.4v-0.2c0-3.4-3.6-4.6-7.7-5.8c-4.8-1.4-9.9-2.8-9.9-7.7l0,0c0-4.6,4-7.7,9.5-7.7c3.4,0,7.3,1.2,10.3,3.2
					l-1.4,2.2c-2.6-1.8-6-2.8-8.9-2.8c-4,0-6.5,2.2-6.5,5v0.2c0,3.2,4,4.4,8.1,5.6c4.8,1.2,9.5,3,9.5,7.9v0.2
					C-282.9,2710.2-287.3,2713.4-293,2713.4z"/>
				<path id="XMLID_148_" fill="#646363" d="M-263.1,2711c4.6,0,7.5-2,9.9-4.4l2,1.6c-3,3.2-6.3,5.4-12.1,5.4
					c-7.5,0-14.3-6-14.3-14.7v-0.2c0-8.1,6-14.7,13.7-14.7c8.1,0,13.3,6.3,13.3,14.9v0.2c0,0.4,0,0.6,0,1h-24
					C-274,2706.8-268.8,2711-263.1,2711z M-253.4,2697.3c-0.4-5.8-3.8-10.9-10.3-10.9c-5.8,0-10.1,4.8-10.7,10.9H-253.4z"/>
				<path id="XMLID_146_" fill="#646363" d="M-228.4,2687.2c-6.7,0-12.5,5-12.5,14.1v11.7h-2.8v-28.4h2.8v8.1
					c2.2-5,7.1-8.7,12.9-8.5v3L-228.4,2687.2L-228.4,2687.2z"/>
				<path id="XMLID_144_" fill="#646363" d="M-206.9,2687.2c-6.7,0-12.5,5-12.5,14.1v11.7h-2.8v-28.4h2.8v8.1
					c2.2-5,7.1-8.7,12.9-8.5v3L-206.9,2687.2L-206.9,2687.2z"/>
				<path id="XMLID_141_" fill="#646363" d="M-182.5,2713v-4.8c-2,2.8-5.6,5.4-11.1,5.4c-5.4,0-11.3-3-11.3-8.9v-0.2
					c0-6,5.2-9.1,12.7-9.1c4,0,6.7,0.6,9.5,1.2v-1.2c0-5.8-3.6-8.7-9.5-8.7c-3.6,0-6.3,1-9.1,2.2l-1-2.4c3.2-1.4,6.3-2.4,10.3-2.4
					c7.5,0,12.1,3.8,12.1,11.1v17.7L-182.5,2713L-182.5,2713z M-182.5,2699.1c-2.4-0.6-5.8-1.2-9.9-1.2c-6.2,0-9.5,2.6-9.5,6.5v0.2
					c0,4.2,4,6.5,8.3,6.5c6,0,10.9-3.6,10.9-8.7L-182.5,2699.1L-182.5,2699.1z"/>
				<path id="XMLID_139_" fill="#646363" d="M-149.2,2713v-16.9c0-5.8-3.4-9.7-9.1-9.7c-5.8,0-10.1,4.2-10.1,10.1v16.5h-2.8v-28.4
					h2.8v5.2c2-3.4,5.2-6,10.5-6c7.3,0,11.7,5,11.7,11.7v17.3L-149.2,2713L-149.2,2713L-149.2,2713z"/>
				<path id="XMLID_136_" fill="#646363" d="M-117.8,2713v-4.8c-2,2.8-5.6,5.4-11.1,5.4c-5.4,0-11.3-3-11.3-8.9v-0.2
					c0-6,5.2-9.1,12.7-9.1c4,0,6.7,0.6,9.5,1.2v-1.2c0-5.8-3.6-8.7-9.5-8.7c-3.6,0-6.3,1-9.1,2.2l-1-2.4c3.2-1.4,6.3-2.4,10.3-2.4
					c7.5,0,12.1,3.8,12.1,11.1v17.7L-117.8,2713L-117.8,2713L-117.8,2713z M-117.6,2699.1c-2.4-0.6-5.8-1.2-9.9-1.2
					c-6.2,0-9.5,2.6-9.5,6.5v0.2c0,4.2,4,6.5,8.3,6.5c6,0,10.9-3.6,10.9-8.7L-117.6,2699.1L-117.6,2699.1z"/>
			</g>
		</g>
		<path id="XMLID_3713_" fill="#E52329" d="M-337.5,2671.9c-2-1.6-4.2-3.4-6.2-5c-5-4-10.3-6.9-17.1-7.1c-0.6,0-1.4-0.4-1.8-0.8
			c-2.2-2-4.2-4-6.3-6c-2.8-2.4-5.8-3.4-9.5-2.8c-4.8,0.6-7.9,3.2-9.9,7.3c-3.8-2.2-7.3-2.2-11.1,0c-0.2-0.4-0.4-0.8-0.6-1.2
			c-4-6.9-13.3-8.5-19.2-3c-2,1.8-3.8,3.6-5.8,5.2c-0.8,0.6-2,1.2-3,1.2c-4.4,0.2-8.5,1.6-12.1,4.2c-3.6,2.8-7.3,5.4-10.7,8.1
			c-9.1,5.6-15.1,15.5-15.1,26.6c0,17.5,14.5,31.6,32.3,31.6c16.1,0,29.2-11.3,31.7-26.2c2.4,1.2,5,1.8,8.1,1.8c3,0,5.6-0.8,7.9-2
			c2.6,14.9,15.9,26.4,31.7,26.4c17.9,0,32.3-14.1,32.3-31.6C-321.8,2687.4-328.2,2677.5-337.5,2671.9z"/>
		<ellipse id="XMLID_122_" fill="#E49B00" cx="-433.7" cy="2698.9" rx="32.3" ry="31.5"/>
		<ellipse id="XMLID_121_" fill="#E49B00" cx="-354.2" cy="2698.9" rx="32.3" ry="31.5"/>
		<ellipse id="XMLID_3697_" fill="#FAEBCC" cx="-433.7" cy="2698.9" rx="21.4" ry="20.8"/>
		<ellipse id="XMLID_3696_" fill="#FAEBCC" cx="-354.2" cy="2698.9" rx="21.4" ry="20.8"/>
		<path id="XMLID_3695_" fill="#E52329" d="M-394.2,2673.3c9.1-0.2,17.1,6.7,16.9,15.9c0,9.1-6.5,16.5-16.7,16.7
			c-9.7,0.2-16.5-7.1-16.7-15.5C-411.1,2680.3-403.2,2672.9-394.2,2673.3z"/>
		<path id="XMLID_3694_" fill="#FAEBCC" d="M-394,2681.3c4.8-0.2,8.7,3.6,8.7,8.1c0,4.8-3.4,8.5-8.5,8.7c-5,0-8.5-3.8-8.7-7.9
			C-402.8,2684.8-398.6,2681.1-394,2681.3z"/>
		<path id="XMLID_34_" fill="#E52329" d="M-427.6,2708.4c-10.3,0-18.7-8.1-18.7-18.3c0-0.2,0-0.6,0-0.8c-2,2.6-3.2,5.8-3.2,9.3
			c0,8.5,7.1,15.5,15.9,15.5c5.6,0,10.5-3,13.5-7.1C-422.6,2708-425,2708.4-427.6,2708.4z"/>
		<path id="XMLID_33_" fill="#E52329" d="M-348,2708.4c-10.3,0-18.7-8.1-18.7-18.3c0-0.2,0-0.6,0-0.8c-2,2.6-3.2,5.8-3.2,9.3
			c0,8.5,7.1,15.5,15.9,15.5c5.6,0,10.5-3,13.5-7.1C-343,2708-345.4,2708.4-348,2708.4z"/>
	</g>
</g>
<g id="Capa_3" display="none">
	<rect x="-712.5" y="2647.9" display="inline" fill="#E52329" width="599.2" height="87.3"/>
</g>
<g>
	<polygon opacity="0.7" fill-rule="evenodd" clip-rule="evenodd" fill="#FFFFFF" points="125.3,1166.6 134.8,1166.6 142,1177.4 
		132.5,1177.4 	"/>
	<polygon fill-rule="evenodd" clip-rule="evenodd" fill="#FFFFFF" points="125.3,1188.3 134.8,1188.3 142,1177.4 132.5,1177.4 	"/>
	<polygon opacity="0.7" fill-rule="evenodd" clip-rule="evenodd" fill="#FFFFFF" points="140.1,1166.6 149.5,1166.6 156.7,1177.4 
		147.3,1177.4 	"/>
	<polygon fill-rule="evenodd" clip-rule="evenodd" fill="#FFFFFF" points="140.1,1188.3 149.5,1188.3 156.7,1177.4 147.3,1177.4 	
		"/>
</g>
<g>
	<g>
		<path fill="#FFFFFF" d="M126.7,1107L126.7,1107c0-7.6,5.8-13.6,13.7-13.6c5.3,0,8.7,2.2,11,5.4l-5.4,4.2c-1.5-1.9-3.2-3-5.7-3
			c-3.6,0-6.2,3.1-6.2,6.9v0.1c0,3.9,2.6,6.9,6.2,6.9c2.7,0,4.3-1.3,5.9-3.1l5.4,3.9c-2.4,3.4-5.7,5.9-11.5,5.9
			C132.7,1120.4,126.7,1114.8,126.7,1107z"/>
		<path fill="#FFFFFF" d="M157.5,1107L157.5,1107c0-7.5,6-13.6,14-13.6c8,0,13.9,6,13.9,13.4v0.1c0,7.4-6,13.5-14,13.5
			C163.5,1120.4,157.5,1114.5,157.5,1107z M178.1,1107L178.1,1107c0-3.8-2.7-7.1-6.7-7.1c-3.9,0-6.6,3.2-6.6,6.9v0.1
			c0,3.7,2.7,7,6.6,7C175.5,1114,178.1,1110.8,178.1,1107z"/>
		<path fill="#FFFFFF" d="M193.7,1094h6.7l10.7,13.7V1094h7.1v25.9h-6.3l-11.1-14.2v14.2h-7.1V1094z"/>
		<path fill="#FFFFFF" d="M233.6,1100.3h-7.8v-6.3h22.7v6.3h-7.8v19.6h-7.2V1100.3z"/>
		<path fill="#FFFFFF" d="M256.2,1094h12.3c4,0,6.7,1,8.4,2.8c1.5,1.5,2.3,3.5,2.3,6v0.1c0,4-2.1,6.6-5.3,8l6.2,9h-8.3l-5.2-7.8
			h-0.1h-3.1v7.8h-7.2V1094z M268.2,1106.4c2.4,0,3.9-1.2,3.9-3.1v-0.1c0-2-1.5-3.1-3.9-3.1h-4.7v6.2H268.2z"/>
		<path fill="#FFFFFF" d="M286.5,1107L286.5,1107c0-7.5,6-13.6,14-13.6c8,0,13.9,6,13.9,13.4v0.1c0,7.4-6,13.5-14,13.5
			C292.4,1120.4,286.5,1114.5,286.5,1107z M307.1,1107L307.1,1107c0-3.8-2.7-7.1-6.7-7.1c-3.9,0-6.6,3.2-6.6,6.9v0.1
			c0,3.7,2.7,7,6.6,7C304.4,1114,307.1,1110.8,307.1,1107z"/>
		<path fill="#FFFFFF" d="M322.7,1094h7.2v19.6h12.6v6.3h-19.7V1094z"/>
		<path fill="#FFFFFF" d="M372.2,1110.2l-9.8-16.2h8.2l5.3,9.4l5.4-9.4h8l-9.8,16.1v9.8h-7.2V1110.2z"/>
		<path fill="#FFFFFF" d="M127.6,1128.5h11.1c6.6,0,10.8,3.4,10.8,9.1v0.1c0,6.1-4.7,9.3-11.1,9.3h-3.6v7.4h-7.2V1128.5z
			 M138.2,1141.4c2.6,0,4.1-1.3,4.1-3.4v-0.1c0-2.2-1.6-3.4-4.1-3.4h-3.4v6.8H138.2z"/>
		<path fill="#FFFFFF" d="M153.6,1128.5h12.3c4,0,6.7,1,8.4,2.8c1.5,1.5,2.3,3.5,2.3,6v0.1c0,4-2.1,6.6-5.3,8l6.2,9h-8.3l-5.2-7.8
			h-0.1h-3.1v7.8h-7.2V1128.5z M165.5,1140.9c2.4,0,3.9-1.2,3.9-3.1v-0.1c0-2-1.5-3.1-3.9-3.1h-4.7v6.2H165.5z"/>
		<path fill="#FFFFFF" d="M181.3,1128.5h20.8v6.1h-13.7v3.9h12.4v5.7h-12.4v4.1h13.9v6.1h-21V1128.5z"/>
		<path fill="#FFFFFF" d="M205,1128.5h8l5.9,16.4l5.9-16.4h7.9l-10.5,26.1h-6.7L205,1128.5z"/>
		<path fill="#FFFFFF" d="M236.3,1128.5h20.8v6.1h-13.7v3.9h12.4v5.7h-12.4v4.1h13.9v6.1h-21V1128.5z"/>
		<path fill="#FFFFFF" d="M262.1,1128.5h6.7l10.7,13.7v-13.7h7.1v25.9h-6.3l-11.1-14.2v14.2h-7.1V1128.5z"/>
		<path fill="#FFFFFF" d="M291.3,1141.5L291.3,1141.5c0-7.6,5.8-13.6,13.7-13.6c5.3,0,8.7,2.2,11,5.4l-5.4,4.2c-1.5-1.9-3.2-3-5.7-3
			c-3.6,0-6.2,3.1-6.2,6.8v0.1c0,3.9,2.6,6.9,6.2,6.9c2.7,0,4.3-1.3,5.9-3.1l5.4,3.9c-2.4,3.4-5.7,5.9-11.5,5.9
			C297.3,1154.9,291.3,1149.3,291.3,1141.5z"/>
		<path fill="#FFFFFF" d="M320.4,1128.5h7.2v25.9h-7.2V1128.5z"/>
		<path fill="#FFFFFF" d="M332.6,1141.5L332.6,1141.5c0-7.5,6-13.6,14-13.6c8,0,13.9,6,13.9,13.4v0.1c0,7.4-6,13.5-14,13.5
			C338.5,1154.9,332.6,1149,332.6,1141.5z M353.2,1141.5L353.2,1141.5c0-3.8-2.7-7.1-6.7-7.1c-3.9,0-6.6,3.2-6.6,6.9v0.1
			c0,3.7,2.7,7,6.6,7C350.5,1148.5,353.2,1145.3,353.2,1141.5z M347.9,1119.9l6.6,2.1l-5.4,4.7h-5L347.9,1119.9z"/>
		<path fill="#FFFFFF" d="M365.3,1128.5h6.7l10.7,13.7v-13.7h7.1v25.9h-6.3l-11.1-14.2v14.2h-7.1V1128.5z"/>
		<path fill="#FFFFFF" d="M163.9,1178.2L163.9,1178.2c0-7.6,5.8-13.6,13.7-13.6c5.3,0,8.7,2.2,11,5.4l-5.4,4.2c-1.5-1.9-3.2-3-5.7-3
			c-3.6,0-6.2,3.1-6.2,6.9v0.1c0,3.9,2.6,6.9,6.2,6.9c2.7,0,4.3-1.3,5.9-3.1l5.4,3.9c-2.4,3.4-5.7,5.9-11.5,5.9
			C169.9,1191.6,163.9,1185.9,163.9,1178.2z"/>
		<path fill="#FFFFFF" d="M191,1165.2h7.2v25.9H191V1165.2z"/>
		<path fill="#FFFFFF" d="M201.7,1179.7v-14.6h7.3v14.4c0,3.7,1.9,5.5,4.8,5.5c2.9,0,4.8-1.7,4.8-5.3v-14.6h7.3v14.4
			c0,8.4-4.8,12-12.1,12C206.3,1191.6,201.7,1187.8,201.7,1179.7z"/>
		<path fill="#FFFFFF" d="M229.1,1165.2h10c9.3,0,14.6,5.3,14.6,12.8v0.1c0,7.5-5.4,13-14.8,13h-9.8V1165.2z M239.2,1184.7
			c4.3,0,7.1-2.4,7.1-6.6v-0.1c0-4.1-2.9-6.6-7.1-6.6h-2.9v13.2H239.2z"/>
		<path fill="#FFFFFF" d="M263.6,1165h6.9l11,26.1h-7.7l-1.9-4.6h-10l-1.9,4.6h-7.6L263.6,1165z M269.9,1180.9l-2.9-7.4l-2.9,7.4
			H269.9z"/>
		<path fill="#FFFFFF" d="M283.1,1165.2h10c9.3,0,14.6,5.3,14.6,12.8v0.1c0,7.5-5.4,13-14.8,13h-9.8V1165.2z M293.2,1184.7
			c4.3,0,7.1-2.4,7.1-6.6v-0.1c0-4.1-2.9-6.6-7.1-6.6h-2.9v13.2H293.2z"/>
		<path fill="#FFFFFF" d="M317.6,1165h6.9l11,26.1h-7.7l-1.9-4.6h-10l-1.9,4.6h-7.6L317.6,1165z M323.8,1180.9l-2.9-7.4l-2.9,7.4
			H323.8z"/>
		<path fill="#FFFFFF" d="M337.1,1165.2h6.7l10.7,13.7v-13.7h7.1v25.9h-6.3l-11.1-14.2v14.2h-7.1V1165.2z"/>
		<path fill="#FFFFFF" d="M374.1,1165h6.9l11,26.1h-7.7l-1.9-4.6h-10l-1.9,4.6h-7.6L374.1,1165z M380.4,1180.9l-2.9-7.4l-2.9,7.4
			H380.4z"/>
	</g>
</g>
<path fill="#FFFFFF" d="M68.9,1089.7l5.4-5.4c-29.8-26.5-75-26.5-104.7,0l5.4,5.4C1.7,1066.1,42,1066.1,68.9,1089.7z"/>
<path fill="#FFFFFF" d="M75.4,1190.3l5.4,5.4c26.5-29.8,26.5-75.1-0.1-104.8l-5.4,5.4C99,1123.1,99,1163.4,75.4,1190.3z"/>
<path fill="#FFFFFF" d="M-25.2,1196.8l-5.5,5.5c29.8,26.6,75.1,26.6,104.9,0l-5.5-5.5C42,1220.4,1.7,1220.4-25.2,1196.8z"/>
<path fill="#FFFFFF" d="M-31.7,1096.2l-5.4-5.4c-26.6,29.8-26.6,75-0.1,104.8l5.4-5.4C-55.3,1163.4-55.3,1123.1-31.7,1096.2z"/>
<path fill="#FFFFFF" d="M21.8,1080.4c-34.8,0-63,28.2-63,63c0,34.8,28.2,63,63,63c34.8,0,63-28.2,63-63
	C84.8,1108.6,56.6,1080.4,21.8,1080.4z M52,1169.6c-7,8.1-16.7,12.9-27.4,13.6c-0.9,0.1-1.9,0.1-2.8,0.1h0
	c-20.9,0-38.4-16.3-39.8-37.2c-1.5-22,15.1-41.1,37.1-42.6c22-1.5,41.1,15.3,42.6,37.1C62.5,1151.2,59,1161.5,52,1169.6z"/>
<circle fill="#FFFFFF" cx="41.6" cy="1131.2" r="11.2"/>
</svg>
