<?xml version="1.0" encoding="utf-8"?>
<!-- Generator: Adobe Illustrator 18.0.0, SVG Export Plug-In . SVG Version: 6.00 Build 0)  -->
<!DOCTYPE svg PUBLIC "-//W3C//DTD SVG 1.1//EN" "http://www.w3.org/Graphics/SVG/1.1/DTD/svg11.dtd">
<svg version="1.1" id="Capa_1" xmlns="http://www.w3.org/2000/svg" xmlns:xlink="http://www.w3.org/1999/xlink" x="0px" y="0px"
	 viewBox="-147 722.5 595.3 158.7" enable-background="new -147 722.5 595.3 158.7" xml:space="preserve">
<g id="Capa_1_1_" display="none">
	<g display="inline">
		<g id="XMLID_6923_">
			<g id="XMLID_167_">
				<path id="XMLID_184_" fill="#646363" d="M-688.1,2371.4v-4.8c-2,2.8-5.6,5.4-11.1,5.4c-5.4,0-11.3-3-11.3-8.9v-0.2
					c0-6,5.2-9.1,12.7-9.1c4,0,6.7,0.6,9.5,1.2v-1.2c0-5.8-3.6-8.7-9.5-8.7c-3.6,0-6.3,1-9.1,2.2l-1-2.4c3.2-1.4,6.3-2.4,10.3-2.4
					c7.5,0,12.1,3.8,12.1,11.1v17.7h-2.6V2371.4L-688.1,2371.4z M-687.9,2357.5c-2.6-0.6-5.8-1.2-9.9-1.2c-6.2,0-9.5,2.6-9.5,6.5
					v0.2c0,4.2,4,6.5,8.3,6.5c6,0,10.9-3.6,10.9-8.7L-687.9,2357.5L-687.9,2357.5z"/>
				<path id="XMLID_182_" fill="#646363" d="M-665.3,2371.6h-2.4l-13.1-28.6h3.2l10.9,25.2l11.1-25.2h3.2L-665.3,2371.6z"/>
				<path id="XMLID_179_" fill="#646363" d="M-635.5,2369.4c4.6,0,7.5-2,9.9-4.4l2,1.6c-3,3.2-6.3,5.4-12.1,5.4
					c-7.5,0-14.3-6-14.3-14.7v-0.2c0-8.1,6-14.7,13.7-14.7c8.1,0,13.3,6.3,13.3,14.9v0.2c0,0.4,0,0.6,0,1h-23.8
					C-646.4,2365.4-641.3,2369.4-635.5,2369.4z M-625.8,2355.9c-0.4-5.8-3.8-10.9-10.3-10.9c-5.8,0-10.1,4.8-10.7,10.9H-625.8z"/>
				<path id="XMLID_177_" fill="#646363" d="M-593.9,2371.4v-16.9c0-5.8-3.4-9.7-9.1-9.7c-5.8,0-10.1,4.2-10.1,10.1v16.5h-2.8V2343
					h2.8v5.4c2-3.4,5.2-6,10.5-6c7.3,0,11.7,5,11.7,11.7v17.3C-590.9,2371.4-593.9,2371.4-593.9,2371.4z"/>
				<path id="XMLID_175_" fill="#646363" d="M-572.8,2371.8c-4.6,0-8.1-2.4-8.1-7.7v-18.7h-4.4v-2.6h4.2v-9.1h2.8v9.1h10.1v2.6
					h-10.1v18.3c0,4,2.4,5.6,5.8,5.6c1.4,0,2.6-0.2,4.4-1v2.6C-569.6,2371.6-571,2371.8-572.8,2371.8z"/>
				<path id="XMLID_173_" fill="#646363" d="M-539.7,2371.4v-5.4c-2,3.4-5.2,6-10.5,6c-7.3,0-11.7-5-11.7-11.7V2343h2.8v16.9
					c0,5.8,3.4,9.7,9.1,9.7s10.1-4.2,10.1-10.1V2343h2.8v28.4C-537.1,2371.4-539.7,2371.4-539.7,2371.4z"/>
				<path id="XMLID_171_" fill="#646363" d="M-512.3,2345.6c-6.7,0-12.5,5-12.5,14.1v11.7h-3V2343h2.8v8.1c2.2-5,7.1-8.7,12.9-8.5
					L-512.3,2345.6C-512.1,2345.6-512.3,2345.6-512.3,2345.6z"/>
				<path id="XMLID_168_" fill="#646363" d="M-487.9,2371.4v-4.8c-2,2.8-5.6,5.4-11.1,5.4c-5.4,0-11.3-3-11.3-8.9v-0.2
					c0-6,5.2-9.1,12.7-9.1c4,0,6.7,0.6,9.5,1.2v-1.2c0-5.8-3.6-8.7-9.5-8.7c-3.6,0-6.3,1-9.1,2.2l-1-2.4c3.2-1.4,6.3-2.4,10.3-2.4
					c7.5,0,12.1,3.8,12.1,11.1v17.7h-2.6V2371.4z M-487.9,2357.5c-2.4-0.6-5.8-1.2-9.9-1.2c-6.2,0-9.5,2.6-9.5,6.5v0.2
					c0,4.2,4,6.5,8.3,6.5c6,0,10.9-3.6,10.9-8.7L-487.9,2357.5L-487.9,2357.5L-487.9,2357.5z"/>
			</g>
		</g>
		<g id="XMLID_6905_">
			<g id="XMLID_135_">
				<path id="XMLID_151_" fill="#646363" d="M-293,2372c-4.2,0-8.7-1.6-11.9-4.2l1.6-2.2c3.2,2.4,6.7,3.8,10.3,3.8
					c4,0,6.9-2.2,6.9-5.4v-0.2c0-3.4-3.6-4.6-7.7-5.8c-4.8-1.4-9.9-2.8-9.9-7.7l0,0c0-4.6,4-7.7,9.5-7.7c3.4,0,7.3,1.2,10.3,3.2
					l-1.4,2.2c-2.6-1.8-6-2.8-8.9-2.8c-4,0-6.5,2.2-6.5,5v0.2c0,3.2,4,4.4,8.1,5.6c4.8,1.2,9.5,3,9.5,7.9v0.2
					C-282.9,2368.8-287.3,2372-293,2372z"/>
				<path id="XMLID_148_" fill="#646363" d="M-263.1,2369.6c4.6,0,7.5-2,9.9-4.4l2,1.6c-3,3.2-6.3,5.4-12.1,5.4
					c-7.5,0-14.3-6-14.3-14.7v-0.2c0-8.1,6-14.7,13.7-14.7c8.1,0,13.3,6.3,13.3,14.9v0.2c0,0.4,0,0.6,0,1h-24
					C-274,2365.4-268.8,2369.6-263.1,2369.6z M-253.4,2355.9c-0.4-5.8-3.8-10.9-10.3-10.9c-5.8,0-10.1,4.8-10.7,10.9H-253.4z"/>
				<path id="XMLID_146_" fill="#646363" d="M-228.4,2345.8c-6.7,0-12.5,5-12.5,14.1v11.7h-2.8v-28.4h2.8v8.1
					c2.2-5,7.1-8.7,12.9-8.5v3L-228.4,2345.8L-228.4,2345.8z"/>
				<path id="XMLID_144_" fill="#646363" d="M-206.9,2345.8c-6.7,0-12.5,5-12.5,14.1v11.7h-2.8v-28.4h2.8v8.1
					c2.2-5,7.1-8.7,12.9-8.5v3L-206.9,2345.8L-206.9,2345.8z"/>
				<path id="XMLID_141_" fill="#646363" d="M-182.5,2371.6v-4.8c-2,2.8-5.6,5.4-11.1,5.4c-5.4,0-11.3-3-11.3-8.9v-0.2
					c0-6,5.2-9.1,12.7-9.1c4,0,6.7,0.6,9.5,1.2v-1.2c0-5.8-3.6-8.7-9.5-8.7c-3.6,0-6.3,1-9.1,2.2l-1-2.4c3.2-1.4,6.3-2.4,10.3-2.4
					c7.5,0,12.1,3.8,12.1,11.1v17.7L-182.5,2371.6L-182.5,2371.6z M-182.5,2357.7c-2.4-0.6-5.8-1.2-9.9-1.2c-6.2,0-9.5,2.6-9.5,6.5
					v0.2c0,4.2,4,6.5,8.3,6.5c6,0,10.9-3.6,10.9-8.7L-182.5,2357.7L-182.5,2357.7z"/>
				<path id="XMLID_139_" fill="#646363" d="M-149.2,2371.6v-16.9c0-5.8-3.4-9.7-9.1-9.7c-5.8,0-10.1,4.2-10.1,10.1v16.5h-2.8v-28.4
					h2.8v5.2c2-3.4,5.2-6,10.5-6c7.3,0,11.7,5,11.7,11.7v17.3L-149.2,2371.6L-149.2,2371.6L-149.2,2371.6z"/>
				<path id="XMLID_136_" fill="#646363" d="M-117.8,2371.6v-4.8c-2,2.8-5.6,5.4-11.1,5.4c-5.4,0-11.3-3-11.3-8.9v-0.2
					c0-6,5.2-9.1,12.7-9.1c4,0,6.7,0.6,9.5,1.2v-1.2c0-5.8-3.6-8.7-9.5-8.7c-3.6,0-6.3,1-9.1,2.2l-1-2.4c3.2-1.4,6.3-2.4,10.3-2.4
					c7.5,0,12.1,3.8,12.1,11.1v17.7L-117.8,2371.6L-117.8,2371.6L-117.8,2371.6z M-117.6,2357.7c-2.4-0.6-5.8-1.2-9.9-1.2
					c-6.2,0-9.5,2.6-9.5,6.5v0.2c0,4.2,4,6.5,8.3,6.5c6,0,10.9-3.6,10.9-8.7L-117.6,2357.7L-117.6,2357.7z"/>
			</g>
		</g>
		<path id="XMLID_3713_" fill="#E52329" d="M-337.5,2330.5c-2-1.6-4.2-3.4-6.2-5c-5-4-10.3-6.9-17.1-7.1c-0.6,0-1.4-0.4-1.8-0.8
			c-2.2-2-4.2-4-6.3-6c-2.8-2.4-5.8-3.4-9.5-2.8c-4.8,0.6-7.9,3.2-9.9,7.3c-3.8-2.2-7.3-2.2-11.1,0c-0.2-0.4-0.4-0.8-0.6-1.2
			c-4-6.9-13.3-8.5-19.2-3c-2,1.8-3.8,3.6-5.8,5.2c-0.8,0.6-2,1.2-3,1.2c-4.4,0.2-8.5,1.6-12.1,4.2c-3.6,2.8-7.3,5.4-10.7,8.1
			c-9.1,5.6-15.1,15.5-15.1,26.6c0,17.5,14.5,31.6,32.3,31.6c16.1,0,29.2-11.3,31.7-26.2c2.4,1.2,5,1.8,8.1,1.8c3,0,5.6-0.8,7.9-2
			c2.6,14.9,15.9,26.4,31.7,26.4c17.9,0,32.3-14.1,32.3-31.6C-321.8,2346-328.2,2336.1-337.5,2330.5z"/>
		<ellipse id="XMLID_122_" fill="#E49B00" cx="-433.7" cy="2357.5" rx="32.3" ry="31.5"/>
		<ellipse id="XMLID_121_" fill="#E49B00" cx="-354.2" cy="2357.5" rx="32.3" ry="31.5"/>
		<ellipse id="XMLID_3697_" fill="#FAEBCC" cx="-433.7" cy="2357.5" rx="21.4" ry="20.8"/>
		<ellipse id="XMLID_3696_" fill="#FAEBCC" cx="-354.2" cy="2357.5" rx="21.4" ry="20.8"/>
		<path id="XMLID_3695_" fill="#E52329" d="M-394.2,2331.9c9.1-0.2,17.1,6.7,16.9,15.9c0,9.1-6.5,16.5-16.7,16.7
			c-9.7,0.2-16.5-7.1-16.7-15.5C-411.1,2338.9-403.2,2331.5-394.2,2331.9z"/>
		<path id="XMLID_3694_" fill="#FAEBCC" d="M-394,2339.9c4.8-0.2,8.7,3.6,8.7,8.1c0,4.8-3.4,8.5-8.5,8.7c-5,0-8.5-3.8-8.7-7.9
			C-402.8,2343.4-398.6,2339.7-394,2339.9z"/>
		<path id="XMLID_34_" fill="#E52329" d="M-427.6,2367c-10.3,0-18.7-8.1-18.7-18.3c0-0.2,0-0.6,0-0.8c-2,2.6-3.2,5.8-3.2,9.3
			c0,8.5,7.1,15.5,15.9,15.5c5.6,0,10.5-3,13.5-7.1C-422.6,2366.6-425,2367-427.6,2367z"/>
		<path id="XMLID_33_" fill="#E52329" d="M-348,2367c-10.3,0-18.7-8.1-18.7-18.3c0-0.2,0-0.6,0-0.8c-2,2.6-3.2,5.8-3.2,9.3
			c0,8.5,7.1,15.5,15.9,15.5c5.6,0,10.5-3,13.5-7.1C-343,2366.6-345.4,2367-348,2367z"/>
	</g>
</g>
<g id="Capa_3" display="none">
	<rect x="-712.5" y="2306.5" display="inline" fill="#E52329" width="599.2" height="87.3"/>
</g>
<g>
	<g>
		<polygon opacity="0.7" fill="#211915" enable-background="new    " points="46.5,754.8 58.4,754.8 67.5,768.5 55.4,768.5 		"/>
		<polygon fill="#211915" points="46.5,782.2 58.4,782.2 67.5,768.5 55.4,768.5 		"/>
		<polygon opacity="0.7" fill="#211915" enable-background="new    " points="64.9,754.8 77,754.8 86,768.5 74,768.5 		"/>
		<polygon fill="#211915" points="64.9,782.2 77,782.2 86,768.5 74,768.5 		"/>
	</g>
	<g>
		<path fill="#211915" d="M72.7,851.7l-9.3-13.9h-7.5v13.9h-9.5v-43.1h19.6c10.1,0,16.3,5.4,16.3,14.3v0.2c0,6.9-3.8,11.3-9.3,13.3
			l10.5,15.5L72.7,851.7L72.7,851.7z M72.9,823.3c0-4-2.8-6.2-7.5-6.2H56v12.3h9.5C70.1,829.4,72.9,826.8,72.9,823.3L72.9,823.3z"/>
		<path fill="#211915" d="M91.5,851.7v-43.1h9.5v43.1H91.5z M92.3,805l6.9-10.9l8.1,3.6l-7.9,7.3H92.3z"/>
		<path fill="#211915" d="M132.6,852.2c-13.3,0-22.8-9.9-22.8-22.2v-0.2c0-12.3,9.7-22.2,23-22.2s22.8,9.9,22.8,22.2v0.2
			C155.6,842.3,145.9,852.2,132.6,852.2z M145.7,830c0-7.3-5.4-13.5-13.1-13.5c-7.7,0-12.9,6-12.9,13.5v0.2
			c0,7.3,5.4,13.5,13.1,13.5C140.3,843.5,145.7,837.6,145.7,830L145.7,830z"/>
		<path fill="#211915" d="M202.8,852.2c-12.7,0-22-9.7-22-22.2v-0.2c0-12.3,9.3-22.2,22.4-22.2c8.1,0,13.1,2.8,17.1,6.7l-6,6.9
			c-3.4-3-6.7-5-11.1-5c-7.3,0-12.5,6-12.5,13.5v0.2c0,7.3,5.2,13.5,12.5,13.5c5,0,7.9-2,11.3-5l6,6.2
			C215.9,849.3,211.2,852.2,202.8,852.2z"/>
		<path fill="#211915" d="M246.1,852.2c-11.5,0-18.7-6.5-18.7-19.2v-24.6h9.5v24.4c0,6.9,3.6,10.7,9.3,10.7s9.3-3.6,9.3-10.3v-24.6
			h9.5V833C264.9,845.9,257.6,852.2,246.1,852.2z"/>
		<path fill="#211915" d="M305.2,851.7l-4-9.7H283l-4,9.7h-9.7l18.5-43.5h8.7l18.5,43.5H305.2z M292.1,819.5l-5.8,13.9h11.5
			L292.1,819.5z"/>
		<path fill="#211915" d="M347.9,851.7l-9.3-13.9h-7.3v13.9h-9.5v-43.1h19.6c10.1,0,16.3,5.4,16.3,14.3v0.2c0,6.9-3.8,11.3-9.3,13.3
			l10.5,15.5L347.9,851.7L347.9,851.7z M348.1,823.3c0-4-2.8-6.2-7.5-6.2h-9.3v12.3h9.5C345.5,829.4,348.1,826.8,348.1,823.3
			L348.1,823.3z"/>
		<path fill="#211915" d="M385.8,817.1v34.3h-9.5v-34.3h-13.1v-8.7h35.7v8.7H385.8z"/>
		<path fill="#211915" d="M425.3,852.2c-13.3,0-22.8-9.9-22.8-22.2v-0.2c0-12.3,9.7-22.2,23-22.2s22.8,9.9,22.8,22.2v0.2
			C448.3,842.3,438.6,852.2,425.3,852.2z M438.4,830c0-7.3-5.4-13.5-13.1-13.5s-12.9,6-12.9,13.5v0.2c0,7.3,5.4,13.5,13.1,13.5
			C433,843.5,438.4,837.6,438.4,830L438.4,830z"/>
	</g>
	<g>
		<path fill="#211915" d="M109.6,784c-9.3,0-15.5-6.7-15.5-15.5c0-8.3,6.3-15.5,15.5-15.5c5.2,0,8.3,1.4,11.5,4l-3.4,4
			c-2.4-2-4.6-3.2-8.3-3.2c-5.6,0-9.7,4.8-9.7,10.5c0,6.2,4,10.7,10.1,10.7c2.8,0,5.4-1,7.1-2.2v-5.6h-7.5v-4.6h12.7v12.5
			C119.1,781.8,114.7,784,109.6,784z"/>
		<path fill="#211915" d="M147.1,784c-9.1,0-15.5-6.9-15.5-15.5c0-8.5,6.5-15.5,15.7-15.5c9.1,0,15.5,6.9,15.5,15.5
			C162.7,776.8,156.2,784,147.1,784z M147.1,758c-6,0-10.1,4.8-10.1,10.5c0,5.8,4.2,10.7,10.1,10.7c6,0,10.1-4.8,10.1-10.5
			C157.2,763,153,758,147.1,758z"/>
		<path fill="#211915" d="M196.1,761.2c0,3.6-2,5.6-4.2,6.7c3.6,1.2,6,3.2,6,7.3c0,5.4-4.4,8.1-11.1,8.1h-13.9v-29.8h13.3
			C192.3,753.6,196.1,756.6,196.1,761.2z M190.9,762.2c0-2.4-1.8-3.8-5.2-3.8h-7.5v7.9h7.1C188.7,766.1,190.9,764.9,190.9,762.2z
			 M192.5,774.7c0-2.6-2-4-6.2-4H178v8.1h8.7C190.5,778.8,192.5,777.4,192.5,774.7z"/>
		<path fill="#211915" d="M213.3,753.6v29.8h-5.2v-29.8H213.3z"/>
		<path fill="#211915" d="M247.5,758.4h-16.9v7.7h14.9v4.8h-14.9v7.9h17.1v4.8h-22.4v-29.8h22v4.6L247.5,758.4L247.5,758.4z"/>
		<path fill="#211915" d="M277,783.4l-7.3-10.3h-6.5v10.3h-5.4v-29.8h13.3c6.9,0,11.1,3.6,11.1,9.5c0,5-3,7.9-7.1,9.1l8.1,11.3
			L277,783.4L277,783.4z M270.7,758.4h-7.5v9.9h7.7c3.8,0,6.2-2,6.2-5C276.8,760.2,274.7,758.4,270.7,758.4z"/>
		<path fill="#211915" d="M313.3,753.6h5.2v29.8h-4.4l-16.5-21.2v21.2h-5.2v-29.8h4.8l16.1,20.6V753.6z"/>
		<path fill="#211915" d="M344.5,784c-9.1,0-15.5-6.9-15.5-15.5c0-8.5,6.5-15.5,15.7-15.5c9.1,0,15.5,6.9,15.5,15.5
			C360.2,776.8,353.6,784,344.5,784z M344.5,758c-6,0-10.1,4.8-10.1,10.5c0,5.8,4.2,10.7,10.1,10.7c6,0,10.1-4.8,10.1-10.5
			C354.6,763,350.5,758,344.5,758z"/>
		<path fill="#211915" d="M398.5,783.4h-11.1v-29.8h11.1c9.3,0,15.9,6.3,15.9,14.9C414.2,776.8,407.8,783.4,398.5,783.4z
			 M398.5,758.4h-6v20.2h6c6.3,0,10.3-4.2,10.3-10.1C408.8,762.8,404.6,758.4,398.5,758.4z"/>
		<path fill="#211915" d="M446.7,758.4h-16.9v7.7h14.9v4.8h-14.9v7.9h17.1v4.8h-22.2v-29.8h22C446.7,753.8,446.7,758.4,446.7,758.4z
			"/>
	</g>
	<g>
		<path id="XMLID_114_" fill="#211915" d="M-67.6,881.2c-43.9,0-79.4-35.5-79.4-79.4s35.5-79.4,79.4-79.4s79.4,35.5,79.4,79.4
			C11.7,845.5-23.8,881.2-67.6,881.2z M-67.6,729.8c-39.7,0-71.8,32.3-71.8,71.8c0,39.7,32.3,71.8,71.8,71.8
			c39.7,0,71.8-32.3,71.8-71.8S-27.9,729.8-67.6,729.8z"/>
		<path id="XMLID_113_" fill="#211915" d="M-119.2,861c0,0,21.8-24.8,77-11.5c0,0,42.7,8.1,66.7-5.8c0,0-26.8,26.6-79.8,12.5
			C-55.3,856-85.7,847.5-119.2,861z"/>
		<path id="XMLID_106_" fill="#211915" d="M-109.7,800.3v37.1h-2.6h-0.4v5.2h-3.4v7.7h5c10.7-6.3,32.5-14.3,68.9-5.4
			c0,0,10.1,2,23.2,2.4v-4.6h-3.4v-5.2h-0.4h-2.6v-37.1h8.1l1.6-4.4l-37.3-20.8V763l-2.2-1.4v-7.3h2.2v-3.4h-2.2v-1.8
			c0-5.2-5-10.9-11.7-11.3v-6.2H-67h-0.2h-0.4l0,0l0,0H-68h-0.2h-0.2v6.2c-6.5,0.4-11.7,6.2-11.7,11.3v1.8h-2.2v3.4h2.2v7.3
			l-2.2,1.4v12.3l-37.3,20.8l1.6,4.4h8.3L-109.7,800.3L-109.7,800.3z M-46,800.3h10.9v37.1H-46V800.3z M-61.9,748.5
			c4.6,0,4.4,4.4,4.4,4.4v8.7h-8.3v-8.7C-65.8,752.8-66.2,748.5-61.9,748.5z M-73.4,748.5c4.4,0,4,4.4,4,4.4v8.7h-8.3v-8.7
			C-77.7,752.8-77.9,748.5-73.4,748.5z M-79.9,800.3h12.3h12.3v37.1h-12.3l0,0l0,0h-12.3V800.3z M-100.2,800.3h10.9v37.1h-10.9
			V800.3z"/>
	</g>
</g>
</svg>
